<svg width="69" height="70" viewBox="0 0 69 70" fill="none" xmlns="http://www.w3.org/2000/svg">
<g clipPath="url(#clip0_1_487)">
<mask id="mask0_1_487" style="mask-type:alpha" maskUnits="userSpaceOnUse" x="-14" y="-14" width="96" height="98">
<path d="M-13.4639 -14H81.6956V84H-13.4639V-14Z" fill="#D9D9D9"/>
</mask>
<g mask="url(#mask0_1_487)">
<g filter="url(#filter0_d_1_487)">
<path d="M3.86261 35.2623C3.86261 52.0549 17.2755 65.6121 33.7527 65.6121C50.2299 65.6121 63.6428 52.0549 63.6428 35.2623C63.6428 18.4696 50.2299 4.91229 33.7527 4.91229C17.2755 4.91229 3.86261 18.4696 3.86261 35.2623Z" fill="#FF04F5" stroke="black" strokeWidth="6.47541"/>
<path d="M40.5447 22.1019C40.4694 22.8116 39.0027 23.7865 38.4673 24.1432C37.0593 25.0814 35.7907 26.2125 34.3924 27.1885C32.3145 28.639 30.5436 30.4903 28.4638 31.8903C27.2956 32.6766 26.2143 33.9611 25.2358 34.9857C25.0853 35.1433 24.1431 35.8039 24.325 35.9562C24.9647 36.4922 25.7005 36.6992 26.3864 37.1609C29.8895 39.5189 33.157 42.3762 36.0862 45.4434C37.2103 46.6204 39.2756 48.3575 39.9694 49.8105" stroke="white" strokeWidth="6.60714" strokeLinecap="round"/>
</g>
</g>
</g>
<defs>
<filter id="filter0_d_1_487" x="-4.55533" y="1.67456" width="71.4359" height="72.3556" filterUnits="userSpaceOnUse" color-interpolation-filters="sRGB">
<feFlood floodOpacity="0" result="BackgroundImageFix"/>
<feColorMatrix in="SourceAlpha" type="matrix" values="0 0 0 0 0 0 0 0 0 0 0 0 0 0 0 0 0 0 127 0" result="hardAlpha"/>
<feOffset dx="-5.18033" dy="5.18033"/>
<feComposite in2="hardAlpha" operator="out"/>
<feColorMatrix type="matrix" values="0 0 0 0 0 0 0 0 0 0 0 0 0 0 0 0 0 0 0.25 0"/>
<feBlend mode="normal" in2="BackgroundImageFix" result="effect1_dropShadow_1_487"/>
<feBlend mode="normal" in="SourceGraphic" in2="effect1_dropShadow_1_487" result="shape"/>
</filter>
<clipPath id="clip0_1_487">
<rect width="69" height="70" fill="white" transform="matrix(-1 0 0 1 69 0)"/>
</clipPath>
</defs>
</svg>
