<svg width="69" height="70" viewBox="0 0 69 70" fill="none" xmlns="http://www.w3.org/2000/svg">
<g clipPath="url(#clip0_1_280)">
<mask id="mask0_1_280" style="mask-type:alpha" maskUnits="userSpaceOnUse" x="-13" y="-14" width="96" height="98">
<path d="M82.4637 -14H-12.6957V84H82.4637V-14Z" fill="#D9D9D9"/>
</mask>
<g mask="url(#mask0_1_280)">
<g filter="url(#filter0_d_1_280)">
<path d="M65.1371 35.2623C65.1371 52.0549 51.7243 65.6121 35.2471 65.6121C18.7699 65.6121 5.35693 52.0549 5.35693 35.2623C5.35693 18.4696 18.7699 4.91229 35.2471 4.91229C51.7243 4.91229 65.1371 18.4696 65.1371 35.2623Z" fill="#FF04F5" stroke="black" strokeWidth="6.47541"/>
<path d="M28.4552 22.1019C28.5305 22.8116 29.9972 23.7865 30.5326 24.1432C31.9406 25.0814 33.2092 26.2125 34.6075 27.1885C36.6854 28.639 38.4563 30.4903 40.5361 31.8903C41.7043 32.6766 42.7856 33.9611 43.7641 34.9857C43.9146 35.1433 44.8568 35.8039 44.6749 35.9562C44.0351 36.4922 43.2994 36.6992 42.6135 37.1609C39.1104 39.5189 35.8429 42.3762 32.9136 45.4434C31.7895 46.6204 29.7243 48.3575 29.0305 49.8105" stroke="white" strokeWidth="6.60714" strokeLinecap="round"/>
</g>
</g>
</g>
<defs>
<filter id="filter0_d_1_280" x="-3.06107" y="1.67456" width="71.4359" height="72.3556" filterUnits="userSpaceOnUse" color-interpolation-filters="sRGB">
<feFlood floodOpacity="0" result="BackgroundImageFix"/>
<feColorMatrix in="SourceAlpha" type="matrix" values="0 0 0 0 0 0 0 0 0 0 0 0 0 0 0 0 0 0 127 0" result="hardAlpha"/>
<feOffset dx="-5.18033" dy="5.18033"/>
<feComposite in2="hardAlpha" operator="out"/>
<feColorMatrix type="matrix" values="0 0 0 0 0 0 0 0 0 0 0 0 0 0 0 0 0 0 0.25 0"/>
<feBlend mode="normal" in2="BackgroundImageFix" result="effect1_dropShadow_1_280"/>
<feBlend mode="normal" in="SourceGraphic" in2="effect1_dropShadow_1_280" result="shape"/>
</filter>
<clipPath id="clip0_1_280">
<rect width="69" height="70" fill="white"/>
</clipPath>
</defs>
</svg>
